<svg width="16" height="16" viewBox="0 0 16 16" fill="none" xmlns="http://www.w3.org/2000/svg">
<g id="u:eye">
<path id="Vector" d="M14.6124 7.73317C13.2657 4.6065 10.7324 2.6665 7.99907 2.6665C5.26573 2.6665 2.7324 4.6065 1.38573 7.73317C1.34903 7.81728 1.33008 7.90806 1.33008 7.99984C1.33008 8.09161 1.34903 8.18239 1.38573 8.2665C2.7324 11.3932 5.26573 13.3332 7.99907 13.3332C10.7324 13.3332 13.2657 11.3932 14.6124 8.2665C14.6491 8.18239 14.6681 8.09161 14.6681 7.99984C14.6681 7.90806 14.6491 7.81728 14.6124 7.73317ZM7.99907 11.9998C5.88573 11.9998 3.88573 10.4732 2.7324 7.99984C3.88573 5.5265 5.88573 3.99984 7.99907 3.99984C10.1124 3.99984 12.1124 5.5265 13.2657 7.99984C12.1124 10.4732 10.1124 11.9998 7.99907 11.9998ZM7.99907 5.33317C7.47165 5.33317 6.95608 5.48957 6.51755 5.78258C6.07902 6.0756 5.73722 6.49208 5.53539 6.97935C5.33356 7.46662 5.28075 8.0028 5.38364 8.52008C5.48653 9.03736 5.74051 9.51252 6.11345 9.88546C6.48639 10.2584 6.96154 10.5124 7.47883 10.6153C7.99611 10.7182 8.53229 10.6653 9.01956 10.4635C9.50683 10.2617 9.9233 9.91989 10.2163 9.48136C10.5093 9.04283 10.6657 8.52725 10.6657 7.99984C10.6657 7.29259 10.3848 6.61432 9.88469 6.11422C9.38459 5.61412 8.70631 5.33317 7.99907 5.33317ZM7.99907 9.33317C7.73536 9.33317 7.47757 9.25497 7.25831 9.10846C7.03904 8.96195 6.86815 8.75372 6.76723 8.51008C6.66631 8.26645 6.63991 7.99836 6.69135 7.73972C6.7428 7.48108 6.86979 7.2435 7.05626 7.05703C7.24273 6.87056 7.48031 6.74357 7.73895 6.69212C7.99759 6.64068 8.26568 6.66708 8.50931 6.768C8.75295 6.86891 8.96119 7.03981 9.10769 7.25908C9.2542 7.47834 9.3324 7.73613 9.3324 7.99984C9.3324 8.35346 9.19193 8.6926 8.94188 8.94265C8.69183 9.19269 8.35269 9.33317 7.99907 9.33317Z" fill="#333333"/>
</g>
</svg>
